<?xml version="1.0" encoding="UTF-8" standalone="no"?><!DOCTYPE svg PUBLIC "-//W3C//DTD SVG 1.1//EN" "http://www.w3.org/Graphics/SVG/1.1/DTD/svg11.dtd"><svg width="100%" height="100%" viewBox="0 0 534 534" version="1.1" xmlns="http://www.w3.org/2000/svg" xmlns:xlink="http://www.w3.org/1999/xlink" xml:space="preserve" xmlns:serif="http://www.serif.com/" style="fill-rule:evenodd;clip-rule:evenodd;stroke-linejoin:round;stroke-miterlimit:2;"><path d="M516.667,108.333l0,316.667c0,50.592 -41.074,91.667 -91.667,91.667l-316.667,0c-50.592,0 -91.667,-41.074 -91.667,-91.667l-0,-316.667c0,-50.592 41.074,-91.667 91.667,-91.667l316.667,-0c50.592,0 91.667,41.074 91.667,91.667Z" style="fill:#fff;"/><clipPath id="_clip1"><path d="M516.667,108.333l0,316.667c0,50.592 -41.074,91.667 -91.667,91.667l-316.667,0c-50.592,0 -91.667,-41.074 -91.667,-91.667l-0,-316.667c0,-50.592 41.074,-91.667 91.667,-91.667l316.667,-0c50.592,0 91.667,41.074 91.667,91.667Z"/></clipPath><g clip-path="url(#_clip1)"><g id="Layer_x0020_1"><g><rect x="-0" y="0.041" width="533.292" height="533.292" style="fill:#2f2239;"/><path d="M-0,365.506l533.292,-71.599l0,239.427l-533.292,0l0,-167.828Z" style="fill:#c4b1c3;"/><path d="M162.979,158.002c-0.061,0.415 -19.635,143.528 -28.341,194.978c-7.262,42.889 -1.076,64.667 13.763,75.034c14.97,10.459 39.115,9.729 67.265,7.354c13.049,-1.099 32.699,-4.611 50.642,-7.823c11.181,-2.006 21.702,-3.888 29.448,-4.987c31.607,-4.496 59.58,-12.664 78.523,-27.834c18.712,-14.985 28.672,-36.956 24.645,-69.247c-3.95,-31.646 -22.962,-170.571 -23.016,-170.971l4.311,-0.576c0.054,0.4 19.196,140.232 23.031,171.017c4.242,34.005 -6.363,57.236 -26.259,73.167c-19.658,15.738 -48.329,24.169 -80.621,28.756c-7.931,1.13 -18.29,2.982 -29.294,4.949c-18.113,3.243 -37.947,6.793 -51.05,7.9c-29.01,2.444 -53.97,3.135 -70.108,-8.138c-16.261,-11.358 -23.177,-34.451 -15.577,-79.314c8.722,-51.496 28.264,-194.425 28.318,-194.84l4.319,0.576Z" style="fill:#fdfffd;fill-rule:nonzero;"/><path d="M371.65,138.09c6.693,0 12.119,5.425 12.119,12.119c0,6.693 -5.425,12.127 -12.119,12.127c-6.693,0 -12.119,-5.433 -12.119,-12.127c0,-6.693 5.425,-12.119 12.119,-12.119Zm0,7.539c2.536,0 4.588,2.052 4.588,4.58c0,2.536 -2.052,4.588 -4.588,4.588c-2.528,0 -4.58,-2.052 -4.58,-4.588c0,-2.528 2.052,-4.58 4.58,-4.58Z" style="fill:#6b72bb;"/><path d="M167.782,142.655c6.693,0 12.119,5.425 12.119,12.119c0,6.693 -5.425,12.119 -12.119,12.119c-6.693,0 -12.119,-5.425 -12.119,-12.119c0,-6.693 5.425,-12.119 12.119,-12.119Zm0,7.539c2.536,0 4.588,2.052 4.588,4.58c0,2.528 -2.052,4.58 -4.588,4.58c-2.528,0 -4.58,-2.052 -4.58,-4.58c0,-2.528 2.052,-4.58 4.58,-4.58Z" style="fill:#6b72bb;"/><path d="M296.148,533.333l-100.263,-42.896l168.503,-34.259l168.904,33.145l0,44.01l-237.144,0Z" style="fill:#2f2239;"/><path d="M305.923,83.16l0,16.223c0,8.446 -18.09,15.293 -40.406,15.293c-22.309,0 -40.399,-6.847 -40.399,-15.293l0,-16.223c9.752,3.673 24.238,6.002 40.399,6.002c16.169,0 30.654,-2.328 40.406,-6.002Z" style="fill:#b22d33;"/><path d="M241.317,91.751c3.174,0 5.748,2.544 5.748,5.679c0,3.143 -2.574,5.687 -5.748,5.687c-3.174,0 -5.74,-2.544 -5.74,-5.687c0,-3.135 2.567,-5.679 5.74,-5.679Zm29.148,2.49c3.174,0 5.748,2.551 5.748,5.687c0,3.135 -2.574,5.679 -5.748,5.679c-3.174,0 -5.748,-2.544 -5.748,-5.679c0,-3.135 2.574,-5.687 5.748,-5.687Zm26.282,-3.888c3.174,0 5.74,2.544 5.74,5.687c0,3.135 -2.567,5.679 -5.74,5.679c-3.174,0 -5.748,-2.544 -5.748,-5.679c0,-3.143 2.574,-5.687 5.748,-5.687Z" style="fill:#2f2239;"/><path d="M318.726,164.28c0,7.862 -23.823,14.225 -53.209,14.225c-29.379,0 -53.201,-6.363 -53.201,-14.225l0,-58.02c0,-3.535 4.818,-6.77 12.803,-9.26l0,2.382c0,8.446 18.09,15.293 40.399,15.293c22.316,0 40.406,-6.847 40.406,-15.293l0,-2.382c7.984,2.49 12.803,5.725 12.803,9.26l0,58.02Z" style="fill:#6b72bb;"/><path d="M271.08,120.915c0,0 -24.107,0.722 -44.095,-4.157c0,0 -5.256,-2.159 -4.88,9.191c0.377,11.358 10.228,15.016 26.366,18.39c16.138,3.381 43.911,1.406 57.697,-6.378c7.008,-3.95 8.046,-10.113 8.092,-15.738c0.038,-5.448 -0.799,-10.413 -2.229,-10.736c-2.913,-0.661 -6.701,6.77 -40.952,9.429Z" style="fill:#b22d33;"/><path d="M271.08,149.794c0,0 -24.107,0.715 -44.095,-4.165c0,0 -5.256,-2.152 -4.88,9.199c0.377,11.35 10.228,15.008 26.366,18.39c16.138,3.374 43.911,1.406 57.697,-6.378c7.008,-3.958 8.046,-10.121 8.092,-15.738c0.038,-5.456 -0.799,-10.421 -2.229,-10.743c-2.913,-0.653 -6.701,6.778 -40.952,9.437Z" style="fill:#b22d33;"/><path d="M306.845,183.384l2.797,9.783c0,7.07 -19.75,12.795 -44.126,12.795c-24.368,0 -44.118,-5.725 -44.118,-12.795l2.79,-9.783c11.005,2.928 25.475,4.711 41.329,4.711c15.861,0 30.332,-1.783 41.329,-4.711Z" style="fill:#b22d33;"/><path d="M266.3,197.109c0,0 -3.22,0.138 -3.581,-1.706c-0.361,-1.852 2.275,-1.729 3.635,-1.729c1.368,0 4.957,-0.238 5.402,1.153c0.446,1.391 -1.837,2.544 -5.456,2.282Z" style="fill:#2f2239;"/><path d="M237.698,195.396c0,0 -3.189,-0.492 -3.174,-2.375c0.008,-1.883 2.567,-1.245 3.904,-0.976c1.337,0.261 4.903,0.738 5.064,2.19c0.169,1.452 -2.298,2.129 -5.794,1.16Z" style="fill:#2f2239;"/><path d="M293.343,195.396c0,0 3.181,-0.492 3.174,-2.375c-0.008,-1.883 -2.567,-1.245 -3.904,-0.976c-1.337,0.261 -4.903,0.738 -5.064,2.19c-0.169,1.452 2.298,2.129 5.794,1.16Z" style="fill:#2f2239;"/><path d="M318.726,159.562c5.81,2.851 9.16,6.202 9.16,9.783c0,10.359 -27.919,18.751 -62.369,18.751c-34.443,0 -62.362,-8.392 -62.362,-18.751c0,-3.581 3.351,-6.932 9.16,-9.783l0,4.718c0,7.862 23.823,14.225 53.201,14.225c29.386,0 53.209,-6.363 53.209,-14.225l0,-4.718Z" style="fill:#6b72bb;"/><path d="M327.886,169.344l0,4.549c0,10.351 -27.919,18.743 -62.369,18.743c-34.443,0 -62.362,-8.392 -62.362,-18.743l0,-4.549c0,10.359 27.919,18.751 62.362,18.751c34.451,0 62.369,-8.392 62.369,-18.751Z" style="fill:#fdca51;"/><path d="M309.642,193.167c10.559,2.305 18.605,16.638 18.605,16.638c5.11,1.452 2.321,3.52 2.321,3.52c-18.912,15.377 -65.051,15.708 -65.051,15.708c0,0 -46.131,-0.33 -65.044,-15.708c0,0 -2.79,-2.067 2.321,-3.52c0,0 8.046,-14.332 18.605,-16.638c0,7.07 19.75,12.795 44.118,12.795c24.376,0 44.126,-5.725 44.126,-12.795Z" style="fill:#6b72bb;"/><path d="M327.993,215.222l0,-0.008c13.433,57.536 22.516,101.508 0.684,128.95c-22.14,27.819 -104.174,27.819 -126.314,0c-21.832,-27.442 -12.749,-71.415 0.684,-128.95l0,0.008c20.203,13.51 62.469,13.81 62.469,13.81c0,0 42.274,-0.3 62.477,-13.81Z" style="fill:#fdca51;"/><path d="M189.852,285.761c3.228,-7.347 8.968,-17.759 16.814,-21.456c12.618,-5.963 -11.22,34.52 11.566,48.36c22.785,13.848 30.847,-40.652 68.171,-52.748c23.8,-7.708 41.959,-3.535 52.771,9.398c4.849,31.546 3.881,56.783 -10.497,74.85c-22.14,27.819 -104.174,27.819 -126.314,0c-11.781,-14.809 -14.555,-34.435 -12.511,-58.404Z" style="fill:#fde486;"/><path d="M265.524,335.474c23.262,0 42.12,4.542 42.12,10.136c0,5.595 -18.858,10.136 -42.12,10.136c-23.269,0 -42.128,-4.542 -42.128,-10.136c0,-5.595 18.858,-10.136 42.128,-10.136Z" style="fill:#fdfffd;"/><path d="M177.242,413.028c0,0 38.723,29.187 100.224,24.691c61.509,-4.503 77.508,-32.253 77.508,-32.253c0,0 -41.905,-15.585 -52.126,-39.246c0.5,-0.069 0.968,-0.138 1.399,-0.207c10.935,-1.706 37.233,-11.827 21.633,-18.782l-0.008,-0.008c-25.536,24.714 -102.215,23.7 -123.509,-3.059c-1.183,-1.499 -2.275,-3.035 -3.281,-4.626c-1.867,-0.031 -5.034,0.669 -3.704,6.086c2.913,11.858 27.627,18.443 27.542,18.42c0,0 -2.644,29.11 -45.678,48.983Z" style="fill:#6b72bb;"/><path d="M222.92,364.046c0,0 0.161,10.175 25.275,11.504c-19.296,0.676 -23.631,11.158 -1.207,14.048c19.627,2.536 53.478,-2.982 55.86,-23.369c0,-0.008 1.268,-0.192 1.399,-0.215c9.913,-1.545 32.46,-10.013 24.945,-16.768c-7.746,11.166 -35.565,17.537 -61.878,18.159c-31.092,0.73 -63.899,-10.09 -70.715,-27.304c-1.191,0.707 -2.021,2.259 -1.222,5.525c1.506,6.132 10.482,13.548 27.542,18.42Z" style="fill:#b22d33;"/><path d="M358.148,446.088c0,18.889 -40.514,34.197 -90.488,34.197c-49.982,0 -90.495,-15.308 -90.495,-34.197c0,-0.446 0.031,-0.884 0.077,-1.329l0,-31.73c0,0 38.723,29.187 100.224,24.691c61.509,-4.503 77.508,-32.253 77.508,-32.253c3.988,1.791 3.174,27.081 3.174,40.622Z" style="fill:#b22d33;"/><path d="M346.414,487.071c-17.275,9.429 -46.108,15.6 -78.761,15.6c-38.454,0 -71.614,-8.569 -86.838,-20.926c-14.086,-11.443 -14.563,-27.911 -3.65,-35.657c0,18.889 40.514,34.197 90.495,34.197c49.974,0 90.488,-15.308 90.488,-34.197c12.411,5.579 5.441,31.607 -11.735,40.983Z" style="fill:#6b72bb;"/><path d="M214.152,114.806c0,0 -33.144,9.091 -41.951,32.453c-8.807,23.354 -24.461,143.582 -24.507,143.59c-0.031,0.008 -7.262,45.74 -9.314,79.937c-1.145,19.143 -1.852,43.949 17.821,54.631c18.628,10.113 40.967,5.425 54.277,-5.341c18.635,-15.078 22.97,-39.807 4.388,-32.737c-8.991,3.427 -22.447,7.915 -31.415,-0.338c-14.601,-13.448 -9.906,-47.346 -3.543,-100.255c6.363,-52.91 13.418,-104.305 13.418,-104.305c0,0 0.146,-32.284 21.287,-35.181c0.407,-0.054 0.799,-0.123 1.183,-0.2l0,-32.46c-0.546,-0.015 -1.091,0.046 -1.645,0.207Z" style="fill:#6b72bb;"/><path d="M318.726,110.395c8.53,0.692 33.667,3.689 42.243,15.316c10.39,14.094 20.403,92.694 20.403,92.694l12.864,102.023c0,0 14.301,57.567 -44.879,82.719c-7.331,-3.22 -20.503,-9.66 -31.308,-18.474c11.696,-4.58 39.323,-18.036 43.058,-44.041c4.765,-33.121 -9.275,-116.255 -9.275,-116.255l-8.968,-65.528c0,0 -2.536,-20.956 -24.138,-19.296l0,-29.156Z" style="fill:#6b72bb;"/><path d="M212.323,135.862c-9.583,2.221 -24.56,8.261 -29.824,24.607c-5.687,17.675 -36.887,213.183 -34.689,229.767c3.689,27.919 28.695,42.189 48.383,33.421c12.096,-5.387 17.298,-11.819 19.342,-16.983c4.058,-10.205 -5.295,-17.66 -5.295,-17.66c-8.561,2.859 -19.258,4.918 -26.789,-2.013c-14.601,-13.448 -9.906,-47.346 -3.543,-100.255c6.363,-52.91 13.418,-104.305 13.418,-104.305c0,0 0.138,-29.855 18.958,-34.712l0.031,-0.015c9.053,-3.812 6.547,-12.688 0.008,-11.85Z" style="fill:#b22d33;"/><path d="M318.726,126.909c8.177,-0.4 33.306,-0.4 39.223,14.094c7.093,17.375 30.393,181.253 30.393,181.253c0,0 13.279,55.791 -48.967,76.102c-6.663,-3.458 -14.47,-8.092 -21.325,-13.687c11.696,-4.58 39.323,-18.036 43.058,-44.041c4.765,-33.121 -9.275,-116.255 -9.275,-116.255l-8.968,-65.528c0,0 -2.536,-20.956 -24.138,-19.296l0,-12.641Z" style="fill:#b22d33;"/><path d="M265.524,328.15c13.049,0 24.099,10.536 27.819,25.068c-7.423,1.575 -17.16,2.528 -27.819,2.528c-10.666,0 -20.403,-0.953 -27.819,-2.528c3.719,-14.532 14.762,-25.068 27.819,-25.068Z" style="fill:#b22d33;"/><path d="M265.516,54.818c29.386,0 53.209,7.685 53.209,17.168c0,9.491 -23.823,17.175 -53.209,17.175c-29.379,0 -53.201,-7.685 -53.201,-17.175c0,-9.483 23.823,-17.168 53.201,-17.168Z" style="fill:#6b72bb;"/><path d="M318.726,71.986l0,4.165c0,9.483 -23.823,17.175 -53.209,17.175c-29.379,0 -53.201,-7.692 -53.201,-17.175l0,-4.165c0,9.491 23.823,17.175 53.201,17.175c29.386,0 53.209,-7.685 53.209,-17.175Z" style="fill:#b22d33;"/><path d="M265.516,51.099c9.03,0 16.345,2.359 16.345,5.272c0,2.92 -7.316,5.279 -16.345,5.279c-9.022,0 -16.338,-2.359 -16.338,-5.279c0,-2.913 7.316,-5.272 16.338,-5.272Z" style="fill:#6b72bb;"/><path d="M281.862,56.371l0,2.252c0,2.913 -7.316,5.272 -16.345,5.272c-9.022,0 -16.338,-2.359 -16.338,-5.272l0,-2.252c0,2.92 7.316,5.279 16.338,5.279c9.03,0 16.345,-2.359 16.345,-5.279Z" style="fill:#b22d33;"/><path d="M195.27,245.723c-1.414,-0.415 -2.221,-1.898 -1.806,-3.304c0.415,-1.406 1.898,-2.213 3.304,-1.798c0.108,0.031 38.147,10.997 86.861,44.779c13.279,9.214 22.885,19.404 29.824,29.379c9.514,13.679 14.363,27.542 16.507,37.394c0.315,1.445 -0.599,2.859 -2.036,3.166c-1.437,0.315 -2.859,-0.599 -3.166,-2.036c-2.036,-9.337 -6.647,-22.493 -15.685,-35.481c-6.624,-9.529 -15.792,-19.25 -28.464,-28.042c-48.007,-33.298 -85.231,-44.026 -85.339,-44.057Z" style="fill:#b22d33;fill-rule:nonzero;"/><path d="M203.493,349.944c-1.16,0.899 -2.836,0.684 -3.727,-0.484c-0.899,-1.16 -0.684,-2.828 0.476,-3.727c0.069,-0.054 23.185,-17.982 60.125,-38.047c18.19,-9.883 33.083,-19.235 45.179,-29.894c11.988,-10.559 21.225,-22.424 28.241,-37.402c0.622,-1.329 2.198,-1.906 3.527,-1.283c1.329,0.622 1.906,2.198 1.283,3.527c-7.354,15.715 -17.014,28.126 -29.532,39.154c-12.403,10.928 -27.604,20.48 -46.155,30.562c-36.556,19.857 -59.357,37.54 -59.418,37.594Z" style="fill:#b22d33;fill-rule:nonzero;"/><path d="M218.194,140.972c-20.472,4.165 -24.092,11.742 -28.072,31.023c-7.6,36.856 -31.431,183.912 -23.154,210.094c7.984,25.244 30.216,23.969 48.506,14.078c-1.806,-4.419 -5.233,-7.155 -5.233,-7.155c-8.561,2.859 -19.258,4.918 -26.789,-2.013c-14.601,-13.448 -9.906,-47.346 -3.543,-100.255c6.363,-52.91 13.418,-104.305 13.418,-104.305c0,0 0.138,-29.855 18.958,-34.712l0.031,-0.015c3.996,-1.683 5.74,-4.357 5.879,-6.74Z" style="fill:#fdca51;"/><path d="M318.726,135.186c6.048,-1.099 26.105,-2.567 31.907,24.86c6.862,32.43 21.863,151.82 21.863,151.82c0,0 7.585,31.039 -14.409,55.184c-9.698,10.643 -22.04,18.036 -32.814,22.977c-2.459,-1.668 -4.895,-3.458 -7.224,-5.356c11.696,-4.58 39.323,-18.036 43.058,-44.041c4.765,-33.121 -9.275,-116.255 -9.275,-116.255l-8.968,-65.528c0,0 -2.536,-20.956 -24.138,-19.296l0,-4.365Z" style="fill:#fdca51;"/><path d="M227.569,145.768c-0.784,2.966 -1.452,8.008 0.715,13.525c3.42,8.715 29.64,13.049 44.41,11.904c13.256,-1.03 29.648,-2.705 39.815,-10.905c-1.183,2.467 -3.135,4.734 -6.34,6.547c-13.786,7.785 -41.559,9.752 -57.697,6.378c-16.138,-3.381 -25.99,-7.039 -26.366,-18.39c-0.377,-11.35 4.88,-9.199 4.88,-9.199c0.192,0.046 0.384,0.092 0.584,0.138Z" style="fill:#fdca51;"/><path d="M227.631,116.911c-0.807,2.92 -1.575,8.092 0.653,13.763c3.42,8.715 29.64,13.049 44.41,11.904c13.164,-1.022 29.417,-2.674 39.599,-10.728c-1.199,2.298 -3.112,4.411 -6.125,6.109c-13.786,7.785 -41.559,9.76 -57.697,6.378c-16.138,-3.374 -25.99,-7.032 -26.366,-18.39c-0.377,-11.35 4.88,-9.191 4.88,-9.191c0.215,0.054 0.43,0.1 0.646,0.154Z" style="fill:#fdca51;"/><path d="M343.639,400.502c0,0 5.771,10.782 -17.928,20.757c-23.254,9.798 -59.611,20.587 -122.003,3.335c-0.799,0.438 -1.614,0.861 -2.444,1.26c17.421,7.178 43.619,14.248 76.202,11.865c61.509,-4.503 77.508,-32.253 77.508,-32.253c0,0 -4.703,-1.752 -11.335,-4.964Z" style="fill:#fdca51;"/><path d="M294.081,398.297c5.971,3.289 8.146,10.789 4.857,16.76c-3.281,5.971 -10.782,8.146 -16.753,4.857c-5.971,-3.281 -8.146,-10.782 -4.864,-16.753c3.289,-5.971 10.789,-8.146 16.76,-4.864Z" style="fill:#b22d33;"/><path d="M294.872,396.86c5.249,2.889 7.162,9.483 4.273,14.732c-2.889,5.249 -9.483,7.162 -14.732,4.273c-5.249,-2.889 -7.162,-9.483 -4.273,-14.732c2.889,-5.249 9.483,-7.162 14.732,-4.273Z" style="fill:#fdca51;"/><path d="M161.903,165.825c-0.177,1.191 -1.291,2.006 -2.482,1.829c-1.183,-0.177 -2.006,-1.291 -1.829,-2.482c0.046,-0.277 0.069,-0.538 0.108,-0.815c0.315,-2.813 0.799,-7.047 5.887,-9.091c1.114,-0.453 2.382,0.092 2.828,1.207c0.446,1.114 -0.092,2.382 -1.207,2.828c-2.674,1.076 -2.982,3.766 -3.181,5.548c-0.046,0.369 -0.085,0.715 -0.123,0.976Z" style="fill:#fdfffd;fill-rule:nonzero;"/><path d="M381.179,160.945c0.184,1.191 -0.638,2.298 -1.829,2.482c-1.191,0.177 -2.305,-0.646 -2.482,-1.837c-0.038,-0.261 -0.077,-0.599 -0.123,-0.968c-0.2,-1.791 -0.507,-4.473 -3.174,-5.548c-1.114,-0.446 -1.66,-1.714 -1.214,-2.828c0.446,-1.114 1.714,-1.66 2.828,-1.214c5.087,2.052 5.571,6.278 5.894,9.099c0.031,0.277 0.061,0.538 0.1,0.815Z" style="fill:#fdfffd;fill-rule:nonzero;"/></g></g></g></svg>